<svg xmlns="http://www.w3.org/2000/svg" xmlns:xlink="http://www.w3.org/1999/xlink" width="50" zoomAndPan="magnify" viewBox="0 0 375 374.999991" height="50" preserveAspectRatio="xMidYMid meet" version="1.0"><defs><clipPath id="id1"><path d="M 127 106.308594 L 242.355469 106.308594 L 242.355469 242 L 127 242 Z M 127 106.308594 " clip-rule="nonzero"/></clipPath></defs><g clip-path="url(#id1)"><path fill="#FFE4C4" d="M 140.179688 107.691406 C 142.589844 106.746094 145.226562 106.625 147.789062 106.613281 C 175.332031 106.652344 202.863281 106.585938 230.410156 106.640625 C 235.421875 106.304688 240.167969 109.9375 241.589844 114.648438 C 242.191406 117.390625 241.964844 120.226562 242.003906 123.019531 C 241.953125 149.207031 242.015625 175.40625 241.976562 201.589844 C 242.335938 207.761719 236.632812 213.445312 230.449219 213.074219 C 202.90625 213.085938 175.347656 213.101562 147.800781 213.058594 C 144.46875 212.980469 140.753906 213.40625 138.351562 215.988281 C 135.019531 219.03125 135.40625 224.117188 136.152344 228.164062 C 137.617188 232.476562 142.230469 234.214844 146.425781 234.511719 C 150.519531 234.523438 150.53125 241.097656 146.574219 241.445312 C 138.601562 241.804688 131.3125 235.839844 128.941406 228.429688 C 126.890625 223.679688 128.355469 218.492188 128.261719 213.527344 C 128.238281 183.789062 128.210938 154.050781 128.261719 124.328125 C 128.238281 116.992188 133.449219 110.273438 140.179688 107.691406 Z M 140.179688 107.691406 " fill-opacity="1" fill-rule="nonzero"/></g><path fill="#FFE4C4" d="M 156.730469 223.429688 C 156.730469 219.53125 162.804688 218.957031 163.632812 222.722656 C 163.992188 230.585938 163.738281 238.488281 163.804688 246.367188 C 167.933594 244.542969 171.71875 241.429688 176.425781 241.390625 C 179.011719 243.542969 182.101562 244.929688 185.140625 246.328125 C 185.234375 238.476562 184.859375 230.613281 185.273438 222.773438 C 185.886719 218.890625 192.308594 219.539062 192.136719 223.507812 C 192.363281 232.140625 192.148438 240.789062 192.242188 249.425781 C 192.230469 251.609375 192.46875 254.722656 189.789062 255.496094 C 182.980469 255.976562 177.289062 246.421875 170.496094 250.890625 C 167.324219 252.410156 164.351562 254.378906 160.992188 255.484375 C 158.765625 256.308594 156.460938 254.085938 156.714844 251.851562 C 156.648438 242.375 156.664062 232.886719 156.730469 223.429688 Z M 156.730469 223.429688 " fill-opacity="1" fill-rule="nonzero"/><path fill="#FFE4C4" d="M 200.214844 235.613281 L 200.960938 234.710938 C 212.085938 233.980469 223.296875 234.472656 234.4375 234.40625 C 238.738281 233.632812 239.964844 240.472656 235.796875 241.296875 C 224.707031 241.589844 213.578125 241.5625 202.480469 241.335938 C 199.695312 241.445312 198.296875 237.492188 200.214844 235.613281 Z M 200.214844 235.613281 " fill-opacity="1" fill-rule="nonzero"/></svg>