<svg xmlns="http://www.w3.org/2000/svg" xmlns:xlink="http://www.w3.org/1999/xlink" width="50" zoomAndPan="magnify" viewBox="0 0 375 374.999991" height="50" preserveAspectRatio="xMidYMid meet" version="1.0"><defs><clipPath id="id1"><path d="M 112.5 180 L 196 180 L 196 233 L 112.5 233 Z M 112.5 180 " clip-rule="nonzero"/></clipPath><clipPath id="id2"><path d="M 192 137 L 262.5 137 L 262.5 258.550781 L 192 258.550781 Z M 192 137 " clip-rule="nonzero"/></clipPath></defs><path fill="#FFE4C4" d="M 186.875 144.386719 C 186.875 159.820312 174.355469 172.324219 158.921875 172.324219 C 143.488281 172.324219 130.96875 159.820312 130.96875 144.386719 C 130.96875 128.9375 143.488281 116.433594 158.921875 116.433594 C 174.355469 116.433594 186.875 128.9375 186.875 144.386719 " fill-opacity="1" fill-rule="nonzero"/><g clip-path="url(#id1)"><path fill="#FFE4C4" d="M 195.410156 187.652344 C 192.082031 184.335938 188.140625 181.964844 183.71875 180.378906 C 176.765625 185.28125 168.085938 188.117188 158.921875 188.117188 C 149.761719 188.117188 141.238281 185.28125 134.125 180.378906 C 121.503906 184.800781 112.5 196.640625 112.5 210.703125 L 112.5 226.804688 C 112.5 229.960938 115.191406 232.648438 118.347656 232.648438 L 185.609375 232.648438 C 183.398438 225.699219 183.09375 216.390625 187.351562 204.230469 C 189.5625 198.542969 192.253906 193.179688 195.410156 187.652344 " fill-opacity="1" fill-rule="nonzero"/></g><g clip-path="url(#id2)"><path fill="#FFE4C4" d="M 261.25 137.753906 C 258.730469 136.488281 244.828125 147.382812 230.621094 162.695312 C 230.460938 162.855469 230.300781 163.015625 230.300781 163.320312 L 225.398438 188.757812 L 221.617188 175.800781 C 221.296875 175.015625 220.191406 174.695312 219.726562 175.480469 C 215.304688 181.007812 211.191406 186.691406 207.714844 192.378906 C 207.566406 192.539062 207.566406 192.859375 207.566406 193.179688 L 211.042969 219.226562 L 202.042969 207.695312 C 201.5625 207.066406 200.457031 207.226562 200.136719 208.011719 C 195.714844 219.863281 195.714844 230.4375 204.078125 237.390625 L 193.027344 255.539062 C 192.253906 256.964844 193.1875 258.550781 194.769531 258.550781 L 203.933594 258.550781 C 204.878906 258.550781 205.664062 257.910156 205.824219 256.964844 C 206.449219 254.128906 208.195312 247.644531 210.871094 241.332031 C 225.398438 246.859375 237.089844 234.699219 245.46875 216.855469 C 245.773438 216.070312 245.148438 215.125 244.347656 215.285156 L 229.820312 217.335938 L 252.097656 199.648438 C 252.246094 199.492188 252.40625 199.332031 252.40625 199.171875 C 254.617188 192.21875 256.507812 184.960938 258.09375 178.171875 C 258.25 177.382812 257.625 176.746094 256.828125 176.90625 L 241.191406 179.914062 L 260.460938 163.480469 C 260.621094 163.335938 260.769531 163.015625 260.769531 162.855469 C 262.992188 148.953125 262.992188 138.699219 261.25 137.753906 " fill-opacity="1" fill-rule="nonzero"/></g></svg>