<svg xmlns="http://www.w3.org/2000/svg" xmlns:xlink="http://www.w3.org/1999/xlink" width="30" zoomAndPan="magnify" viewBox="0 0 375 374.999991" height="30" preserveAspectRatio="xMidYMid meet" version="1.0"><defs><clipPath id="id1"><path d="M 115 106 L 262.5 106 L 262.5 253.027344 L 115 253.027344 Z M 115 106 " clip-rule="nonzero"/></clipPath></defs><g clip-path="url(#id1)"><path fill="#545454" d="M 167.433594 203.4375 C 144.75 201.011719 128.320312 180.652344 130.734375 157.972656 C 133.148438 135.277344 153.507812 118.847656 176.203125 121.261719 C 198.894531 123.691406 215.324219 144.035156 212.898438 166.730469 C 210.484375 189.421875 190.125 205.851562 167.433594 203.4375 Z M 262.511719 242.417969 L 216.589844 196.523438 C 222.644531 188.601562 226.679688 178.96875 227.8125 168.320312 C 231.101562 137.394531 208.722656 109.648438 177.792969 106.359375 C 146.867188 103.058594 119.121094 125.453125 115.832031 156.378906 C 112.53125 187.308594 134.925781 215.039062 165.851562 218.339844 C 180.753906 219.933594 194.914062 215.535156 205.96875 207.105469 L 251.917969 253.027344 L 262.511719 242.417969 " fill-opacity="1" fill-rule="nonzero"/></g></svg>