<svg xmlns="http://www.w3.org/2000/svg" xmlns:xlink="http://www.w3.org/1999/xlink" width="60" zoomAndPan="magnify" viewBox="0 0 375 374.999991" height="60" preserveAspectRatio="xMidYMid meet" version="1.0"><defs><clipPath id="id1"><path d="M 112.5 125 L 262.5 125 L 262.5 250.21875 L 112.5 250.21875 Z M 112.5 125 " clip-rule="nonzero"/></clipPath></defs><g clip-path="url(#id1)"><path fill="#ffffff" d="M 256.25 193.851562 L 118.75 193.851562 C 115.300781 193.851562 112.5 191.058594 112.5 187.59375 C 112.5 184.128906 115.300781 181.335938 118.75 181.335938 L 256.25 181.335938 C 259.699219 181.335938 262.5 184.136719 262.5 187.59375 C 262.5 191.050781 259.699219 193.851562 256.25 193.851562 Z M 256.25 137.519531 L 118.75 137.519531 C 115.300781 137.519531 112.5 134.722656 112.5 131.257812 C 112.5 127.792969 115.300781 125 118.75 125 L 256.25 125 C 259.699219 125 262.5 127.804688 262.5 131.257812 C 262.5 134.714844 259.699219 137.519531 256.25 137.519531 Z M 256.25 250.1875 L 118.75 250.1875 C 115.300781 250.1875 112.5 247.382812 112.5 243.929688 C 112.5 240.472656 115.300781 237.667969 118.75 237.667969 L 256.25 237.667969 C 259.699219 237.667969 262.5 240.472656 262.5 243.929688 C 262.5 247.382812 259.699219 250.1875 256.25 250.1875 Z M 256.25 250.1875 " fill-opacity="1" fill-rule="nonzero"/></g></svg>